:version 1.10
:name ASF
:units
  mass 1
  length 1
  angle deg
:documentation
  ASF file generated by Kaydara
:root
  axis xyz
  order  tx ty tz rx ry rz
  position 0 0 0
  orientation 0 0 0
:bonedata
  begin
    id 1
    name RightUpLegDummy
    direction -1 2.30186e-007 8.31532e-007
    length 4.46685
    axis 0 0 0 xyz
  end
  begin
    id 2
    name RightUpLeg
    direction -2.30187e-007 -1 1.24343e-010
    length 16.4045
    axis -3.49089 -0.000906625 0.000286804 xyz
    dof rx ry rz
  end
  begin
    id 3
    name RightLeg
    direction -2.30181e-007 -1 -4.17157e-009
    length 17.5097
    axis 3.68512 0.0193738 -0.131023 xyz
    dof rx ry rz
  end
  begin
    id 4
    name RightFoot
    direction 8.31421e-007 -4.51202e-011 1
    length 6.49508
    axis 4.81691e-005 -0.120479 -0.188788 xyz
    dof rx ry rz
  end
  begin
    id 5
    name RightToes
    direction 0.00124746 -0.014064 0.9999
    length 3.85082
    axis 0.000481921 0.542163 -0.142578 xyz
    dof rx ry rz
  end
  begin
    id 6
    name SpineDummy
    direction 0.0717043 0.9409 -0.331007
    length 10.0032
    axis 0 0 0 xyz
  end
  begin
    id 7
    name Spine
    direction 2.30186e-007 1 4.58806e-011
    length 9.84055
    axis -0.001389 0.000121418 2.40972e-006 xyz
    dof rx ry rz
  end
  begin
    id 8
    name Spine1
    direction 0 0 0
    length 0
    axis -0.001389 0.000121451 1.30017e-006 xyz
    dof rx ry rz
  end
  begin
    id 9
    name HEadDummy
    direction -0.00347485 0.950688 -0.310128
    length 8.00997
    axis -0.001389 0.000121451 1.30017e-006 xyz
  end
  begin
    id 10
    name HEad
    direction -0.0222688 0.980941 0.193023
    length 5.12695
    axis -0.001389 0.000121451 1.30017e-006 xyz
    dof rx ry rz
  end
  begin
    id 11
    name LeftShoulder1Dummy
    direction 0.988871 0.146793 -0.0242004
    length 3.5792
    axis -0.001389 0.000121451 1.30017e-006 xyz
  end
  begin
    id 12
    name LeftShoulder1
    direction 0.993832 0.108932 0.020779
    length 4.16823
    axis -0.001389 0.000121451 1.30017e-006 xyz
    dof rx ry rz
  end
  begin
    id 13
    name LeftArm
    direction 1 3.44807e-006 -8.31404e-007
    length 9.91437
    axis -23.1894 0.134784 0.967509 xyz
    dof rx ry rz
  end
  begin
    id 14
    name LeftForeArm
    direction 1 3.44842e-006 -8.31581e-007
    length 9.08575
    axis -9.91835 -0.06569 -0.177793 xyz
    dof rx ry rz
  end
  begin
    id 15
    name LeftHand
    direction 0.992938 -0.0411636 0.11126
    length 5.32135
    axis -0.00960232 -0.00340091 0.185173 xyz
    dof rx ry rz
  end
  begin
    id 16
    name RightShoulderDummy
    direction -0.988871 0.146793 -0.0241962
    length 3.5792
    axis -0.001389 0.000121451 1.30017e-006 xyz
  end
  begin
    id 17
    name RightShoulder
    direction -0.993832 0.108933 0.0207785
    length 4.16823
    axis 0.215806 0.000203643 -0.0068026 xyz
    dof rx ry rz
  end
  begin
    id 18
    name RightArm
    direction -1 3.90912e-006 8.31284e-007
    length 9.91437
    axis -23.2009 -0.134239 -0.964101 xyz
    dof rx ry rz
  end
  begin
    id 19
    name RightForeArm
    direction -1 3.90882e-006 8.31502e-007
    length 9.08575
    axis -9.92322 0.0658061 0.178867 xyz
    dof rx ry rz
  end
  begin
    id 20
    name RightHand
    direction -0.992843 -0.0414603 0.112003
    length 5.28593
    axis -0.00960638 0.00330671 -0.185228 xyz
    dof rx ry rz
  end
  begin
    id 21
    name LeftUpLegDummy
    direction 1 -2.30186e-007 -8.31532e-007
    length 4.46685
    axis 0 0 0 xyz
  end
  begin
    id 22
    name LeftUpLeg
    direction -2.30187e-007 -1 6.00931e-010
    length 16.4045
    axis -3.48766 0.00143442 -0.000524262 xyz
    dof rx ry rz
  end
  begin
    id 23
    name LeftLeg
    direction -2.30187e-007 -1 1.6669e-009
    length 17.5097
    axis 3.68178 -0.00654042 -0.000285133 xyz
    dof rx ry rz
  end
  begin
    id 24
    name LeftFoot
    direction 8.31532e-007 -4.54478e-011 1
    length 6.49508
    axis 1.87233e-006 4.66016e-005 -8.6538e-006 xyz
    dof rx ry rz
  end
  begin
    id 25
    name LeftToes
    direction 0.00818058 -0.00485161 0.999955
    length 3.85048
    axis 1.06247e-005 4.65869e-005 -8.65513e-006 xyz
    dof rx ry rz
  end
:hierarchy
  begin
    root RightUpLegDummy SpineDummy LeftUpLegDummy
    RightUpLegDummy RightUpLeg
    RightUpLeg RightLeg
    RightLeg RightFoot
    RightFoot RightToes
    SpineDummy Spine
    Spine Spine1
    Spine1 HEadDummy LeftShoulder1Dummy RightShoulderDummy
    HEadDummy HEad
    LeftShoulder1Dummy LeftShoulder1
    LeftShoulder1 LeftArm
    LeftArm LeftForeArm
    LeftForeArm LeftHand
    RightShoulderDummy RightShoulder
    RightShoulder RightArm
    RightArm RightForeArm
    RightForeArm RightHand
    LeftUpLegDummy LeftUpLeg
    LeftUpLeg LeftLeg
    LeftLeg LeftFoot
    LeftFoot LeftToes
  end

:SAMPLES-PER-SECOND 30
:FULLY-SPECIFIED
:DEGREES
65
root  34.0804 28.8932 43.8054 -172.616 54.6521 -173.264
RightUpLeg  -15.0235 1.06546 -6.71703
RightLeg  77.9259 -2.79826 -10.112
RightFoot  -7.23913 0.100301 1.96324
RightToes  -11.6899 -0.0401328 -0.106887
Spine  8.07802 4.20762 0.286395
Spine1  14.7362 11.0387 -3.13355
HEad  40.6482 3.58026 1.43169
LeftShoulder1  0 -2.42657e-020 -4.95415e-022
LeftArm  -24.5361 9.04612 -86.8998
LeftForeArm  51.7159 -25.7296 -4.83851
LeftHand  0.28232 -10.6307 -3.40594
RightShoulder  0 2.42657e-020 1.07489e-018
RightArm  -40.6876 14.132 81.8671
RightForeArm  47.5967 17.2858 3.12024
RightHand  0.352606 23.6114 2.05743
LeftUpLeg  -26.709 8.26054 -18.1437
LeftLeg  55.111 2.10111 2.62348
LeftFoot  -29.6863 -0.425614 -1.6059
LeftToes  28.3079 9.37529e-007 1.1992e-007
66
root  35.3319 29.0175 42.9403 -173.28 51.9239 -173.371
RightUpLeg  -19.9321 2.84743 -8.49001
RightLeg  77.278 -3.46268 -11.8673
RightFoot  -11.0012 0.240204 2.87169
RightToes  -9.15295 -0.0295825 -0.0844218
Spine  7.77667 3.08764 0.819163
Spine1  14.5125 8.20303 -1.72592
HEad  40.5033 4.46347 -0.45894
LeftShoulder1  0 -2.42657e-020 -4.95415e-022
LeftArm  -25.8396 9.21672 -87.6294
LeftForeArm  50.5631 -24.844 -4.64901
LeftHand  0.258745 -10.0686 -3.3088
RightShoulder  0 2.42657e-020 1.07489e-018
RightArm  -36.1347 9.88874 80.4584
RightForeArm  37.6537 24.2034 4.53277
RightHand  -0.097988 23.9507 -0.0919865
LeftUpLeg  -22.1974 3.87114 -17.736
LeftLeg  53.9653 3.40043 4.07563
LeftFoot  -31.0479 -0.764448 -2.75157
LeftToes  26.8735 9.37529e-007 1.1992e-007
67
root  36.5307 29.5584 42.0487 -172.826 49.7015 -172.249
RightUpLeg  -24.0273 4.81765 -8.78911
RightLeg  72.0449 -4.71929 -11.896
RightFoot  -11.8348 0.272328 3.00472
RightToes  -8.88841 -0.0285399 -0.0820529
Spine  7.39362 2.0255 1.50719
Spine1  14.1028 5.54955 -0.0717896
HEad  40.2652 6.14996 -1.98438
LeftShoulder1  0 -2.42657e-020 -4.95415e-022
LeftArm  -25.6791 10.464 -88.3259
LeftForeArm  47.9973 -25.0692 -4.70193
LeftHand  0.201166 -9.66604 -2.75075
RightShoulder  0 2.42657e-020 1.07489e-018
RightArm  -35.9264 7.00851 79.5615
RightForeArm  32.0267 29.8414 5.7991
RightHand  0.0588187 23.7767 0.649576
LeftUpLeg  -16.9546 0.337329 -16.6024
LeftLeg  50.4703 4.65115 4.9258
LeftFoot  -30.2727 -0.937629 -3.4653
LeftToes  26.0366 9.37529e-007 1.1992e-007
68
root  37.7001 30.3492 41.2652 -171.226 48.9817 -170.739
RightUpLeg  -28.0007 7.73342 -8.18954
RightLeg  63.0839 -7.32381 -12.2574
RightFoot  -10.9273 0.248685 2.97727
RightToes  -9.52645 -0.0310731 -0.0877582
Spine  6.86826 1.41398 1.96277
Spine1  13.2886 3.95977 1.09759
HEad  39.9671 8.35176 -2.4733
LeftShoulder1  0 -2.42657e-020 -4.95415e-022
LeftArm  -24.4047 12.3871 -88.4081
LeftForeArm  45.4458 -27.046 -5.1397
LeftHand  0.196063 -9.2041 -2.80744
RightShoulder  0 2.42657e-020 1.07489e-018
RightArm  -35.4171 5.81246 78.9637
RightForeArm  26.6694 33.723 6.75821
RightHand  0.314427 24.1657 1.83922
LeftUpLeg  -12.3848 -0.102725 -14.8137
LeftLeg  45.3521 5.06062 4.48275
LeftFoot  -27.592 -0.781713 -3.18277
LeftToes  24.2289 9.37529e-007 1.1992e-007
69
root  38.8717 31.258 40.3861 -169.178 47.252 -168.981
RightUpLeg  -29.0305 8.69479 -7.00958
RightLeg  49.0456 -10.4933 -10.484
RightFoot  -10.3857 0.223485 2.83645
RightToes  -10.884 -0.0366737 -0.0998016
Spine  6.39132 0.43713 2.54979
Spine1  12.52 1.72969 2.37144
HEad  39.2943 11.2027 -2.94392
LeftShoulder1  0 -2.42657e-020 -4.95415e-022
LeftArm  -22.4672 14.328 -88.3361
LeftForeArm  43.9952 -29.2568 -5.64618
LeftHand  0.20891 -9.19833 -2.96872
RightShoulder  0 2.42657e-020 1.07489e-018
RightArm  -33.965 6.62437 78.3678
RightForeArm  27.4856 35.9269 7.34131
RightHand  -0.209699 24.5453 -0.594095
LeftUpLeg  -7.96852 -0.620621 -12.5512
LeftLeg  39.8993 5.09583 3.71653
LeftFoot  -23.2345 -0.518643 -2.52239
LeftToes  21.4962 9.37529e-007 1.1992e-007
